# xmcd CD database file
#
# Track frame offsets:
#	150
#	17964
#	34356
#	50715
#	71981
#	88692
#	108771
#	122017
#	138614
#	152652
#	171027
#	185520
#
# Disc length: 2779 seconds
#
# Revision: 0
# Processed by: cddbd v1.5.1PL0 Copyright (c) Steve Scherf et al.
# Submitted via: CDex 1.51
#
DISCID=ab0ad90c
DTITLE=Al Gates - You Can't Get There From Here
DYEAR=2000
DGENRE=Country
TTITLE0=California Wildfire
TTITLE1=Angels Fly
TTITLE2=Beautiful Again
TTITLE3=Ghost Train
TTITLE4=Lonely at the Top
TTITLE5=You Can't Get There From Here
TTITLE6=Back For More
TTITLE7=The Old You
TTITLE8=Bigger than the World
TTITLE9=Walk All Over Me
TTITLE10=The Last of the Yodelin' Cowboys
TTITLE11=Indian Song
EXTD=YEAR: 2000
EXTT0=
EXTT1=
EXTT2=
EXTT3=
EXTT4=
EXTT5=
EXTT6=
EXTT7=
EXTT8=
EXTT9=
EXTT10=
EXTT11=
PLAYORDER=
